<svg width="232" height="76" viewBox="0 0 232 76" fill="none" xmlns="http://www.w3.org/2000/svg">
<path d="M44.414 6.18C45.53 6.396 46.358 6.774 46.898 7.314C47.474 7.854 47.762 8.484 47.762 9.204C47.762 10.392 47.42 11.256 46.736 11.796C46.088 12.336 45.044 12.552 43.604 12.444C40.364 12.192 37.826 12.03 35.99 11.958C34.19 11.85 31.814 11.778 28.862 11.742C27.53 18.366 26.306 25.026 25.19 31.722C24.794 34.17 24.38 37.014 23.948 40.254C23.516 43.458 23.228 46.05 23.084 48.03C23.012 49.074 22.58 49.884 21.788 50.46C20.996 51 20.042 51.27 18.926 51.27C17.738 51.27 16.82 50.982 16.172 50.406C15.524 49.83 15.2 49.074 15.2 48.138C15.2 47.274 15.326 45.852 15.578 43.872C15.866 41.856 16.19 39.75 16.55 37.554C16.946 35.358 17.252 33.45 17.468 31.83C17.864 29.094 18.314 26.376 18.818 23.676C19.322 20.976 19.826 18.42 20.33 16.008C20.438 15.468 20.564 14.856 20.708 14.172C20.852 13.452 21.014 12.66 21.194 11.796C17.666 11.904 14.894 12.192 12.878 12.66C10.862 13.128 9.422 13.794 8.558 14.658C7.73 15.486 7.316 16.566 7.316 17.898C7.316 19.122 7.676 20.292 8.396 21.408C8.54 21.66 8.612 21.93 8.612 22.218C8.612 22.902 8.198 23.55 7.37 24.162C6.578 24.738 5.75 25.026 4.886 25.026C4.274 25.026 3.77 24.846 3.374 24.486C2.654 23.874 2.06 23.01 1.592 21.894C1.124 20.742 0.89 19.446 0.89 18.006C0.89 14.946 1.88 12.498 3.86 10.662C5.876 8.79 8.918 7.422 12.986 6.558C17.09 5.694 22.346 5.262 28.754 5.262C32.714 5.262 35.864 5.334 38.204 5.478C40.58 5.622 42.65 5.856 44.414 6.18ZM69.2143 38.958C69.6823 38.958 70.0423 39.174 70.2943 39.606C70.5823 40.038 70.7263 40.632 70.7263 41.388C70.7263 42.828 70.3843 43.944 69.7003 44.736C68.0443 46.644 66.3343 48.21 64.5703 49.434C62.8423 50.658 60.8623 51.27 58.6303 51.27C56.7943 51.27 55.4083 50.748 54.4723 49.704C53.5363 48.624 53.0683 47.076 53.0683 45.06C53.0683 44.052 53.3203 42.252 53.8243 39.66C54.2923 37.392 54.5263 35.826 54.5263 34.962C54.5263 34.386 54.3283 34.098 53.9323 34.098C53.4643 34.098 52.7983 34.71 51.9343 35.934C51.0703 37.122 50.2063 38.706 49.3423 40.686C48.4783 42.666 47.7763 44.754 47.2363 46.95C46.5523 49.83 44.8603 51.27 42.1603 51.27C41.0803 51.27 40.3603 50.892 40.0003 50.136C39.6763 49.344 39.5143 47.94 39.5143 45.924C39.5143 44.772 39.5323 43.854 39.5683 43.17L39.6223 38.85C39.6223 33.306 40.1803 27.528 41.2963 21.516C42.4483 15.504 44.1223 10.464 46.3183 6.396C48.5503 2.292 51.2143 0.239997 54.3103 0.239997C55.9663 0.239997 57.2983 0.959997 58.3063 2.4C59.3503 3.804 59.8723 5.64 59.8723 7.908C59.8723 11.544 58.8103 15.324 56.6863 19.248C54.5623 23.136 51.1063 27.69 46.3183 32.91C46.2103 34.782 46.1563 36.708 46.1563 38.688C47.3443 35.628 48.6583 33.144 50.0983 31.236C51.5743 29.292 53.0143 27.906 54.4183 27.078C55.8583 26.25 57.1723 25.836 58.3603 25.836C60.7003 25.836 61.8703 27.006 61.8703 29.346C61.8703 30.75 61.4743 33.288 60.6823 36.96C59.9983 40.092 59.6563 42.162 59.6563 43.17C59.6563 44.61 60.1783 45.33 61.2223 45.33C61.9423 45.33 62.7883 44.898 63.7603 44.034C64.7683 43.134 66.1003 41.694 67.7563 39.714C68.1883 39.21 68.6743 38.958 69.2143 38.958ZM53.1763 5.586C52.5283 5.586 51.8083 6.522 51.0163 8.394C50.2243 10.23 49.4503 12.732 48.6943 15.9C47.9743 19.032 47.3803 22.452 46.9123 26.16C49.1443 23.532 50.9803 20.67 52.4203 17.574C53.8963 14.478 54.6343 11.67 54.6343 9.15C54.6343 7.998 54.5083 7.116 54.2563 6.504C54.0043 5.892 53.6443 5.586 53.1763 5.586ZM93.8898 34.422C94.3578 34.422 94.7178 34.656 94.9698 35.124C95.2218 35.592 95.3478 36.186 95.3478 36.906C95.3478 38.634 94.8258 39.66 93.7818 39.984C91.6218 40.74 89.2458 41.172 86.6538 41.28C85.9698 44.304 84.6198 46.734 82.6038 48.57C80.5878 50.37 78.3018 51.27 75.7458 51.27C73.5858 51.27 71.7318 50.748 70.1838 49.704C68.6718 48.66 67.5198 47.274 66.7278 45.546C65.9358 43.818 65.5398 41.946 65.5398 39.93C65.5398 37.194 66.0618 34.764 67.1058 32.64C68.1498 30.48 69.5898 28.806 71.4258 27.618C73.2618 26.394 75.2958 25.782 77.5278 25.782C80.2638 25.782 82.4598 26.736 84.1158 28.644C85.8078 30.516 86.7978 32.838 87.0858 35.61C88.7778 35.502 90.7938 35.142 93.1338 34.53C93.4218 34.458 93.6738 34.422 93.8898 34.422ZM76.1778 45.546C77.3298 45.546 78.3198 45.078 79.1478 44.142C80.0118 43.206 80.5878 41.856 80.8758 40.092C79.7598 39.336 78.8958 38.346 78.2838 37.122C77.7078 35.898 77.4198 34.602 77.4198 33.234C77.4198 32.658 77.4738 32.082 77.5818 31.506H77.3118C75.8718 31.506 74.6658 32.208 73.6938 33.612C72.7578 34.98 72.2898 36.924 72.2898 39.444C72.2898 41.424 72.6678 42.936 73.4238 43.98C74.2158 45.024 75.1338 45.546 76.1778 45.546ZM101.027 51.27C97.4991 51.27 94.7451 50.28 92.7651 48.3C90.8211 46.284 89.8491 43.638 89.8491 40.362C89.8491 37.446 90.4251 34.89 91.5771 32.694C92.7291 30.498 94.2231 28.806 96.0591 27.618C97.8951 26.43 99.8211 25.836 101.837 25.836C103.817 25.836 105.347 26.43 106.427 27.618C107.543 28.77 108.101 30.264 108.101 32.1C108.101 33.612 107.759 34.89 107.075 35.934C106.427 36.978 105.563 37.5 104.483 37.5C103.799 37.5 103.241 37.338 102.809 37.014C102.413 36.69 102.215 36.24 102.215 35.664C102.215 35.412 102.251 35.124 102.323 34.8C102.395 34.476 102.449 34.242 102.485 34.098C102.665 33.558 102.755 33.054 102.755 32.586C102.755 32.118 102.629 31.758 102.377 31.506C102.161 31.254 101.837 31.128 101.405 31.128C100.577 31.128 99.8031 31.506 99.0831 32.262C98.3631 32.982 97.7871 33.972 97.3551 35.232C96.9231 36.492 96.7071 37.878 96.7071 39.39C96.7071 43.566 98.5251 45.654 102.161 45.654C103.637 45.654 105.221 45.168 106.913 44.196C108.641 43.188 110.333 41.694 111.989 39.714C112.421 39.21 112.907 38.958 113.447 38.958C113.915 38.958 114.275 39.174 114.527 39.606C114.815 40.038 114.959 40.632 114.959 41.388C114.959 42.756 114.617 43.872 113.933 44.736C112.241 46.824 110.207 48.444 107.831 49.596C105.491 50.712 103.223 51.27 101.027 51.27ZM141.806 38.958C142.274 38.958 142.634 39.174 142.886 39.606C143.174 40.038 143.318 40.632 143.318 41.388C143.318 42.828 142.976 43.944 142.292 44.736C140.672 46.716 139.034 48.3 137.378 49.488C135.722 50.676 133.76 51.27 131.492 51.27C128.72 51.27 126.488 50.478 124.796 48.894C123.104 47.31 122.258 45.204 122.258 42.576C122.258 41.172 122.978 40.164 124.418 39.552C126.002 38.868 127.136 38.148 127.82 37.392C128.504 36.6 128.846 35.646 128.846 34.53C128.846 33.882 128.702 33.396 128.414 33.072C128.162 32.748 127.838 32.586 127.442 32.586C126.47 32.586 125.39 33.288 124.202 34.692C123.05 36.096 121.97 37.914 120.962 40.146C119.954 42.342 119.162 44.61 118.586 46.95C118.19 48.642 117.722 49.794 117.182 50.406C116.678 50.982 115.868 51.27 114.752 51.27C113.636 51.27 112.808 50.874 112.268 50.082C111.764 49.254 111.422 47.994 111.242 46.302C111.062 44.61 110.972 42.126 110.972 38.85C110.972 33.306 111.53 27.528 112.646 21.516C113.798 15.504 115.472 10.464 117.668 6.396C119.9 2.292 122.564 0.239997 125.66 0.239997C127.316 0.239997 128.648 0.959997 129.656 2.4C130.7 3.804 131.222 5.64 131.222 7.908C131.222 11.544 130.16 15.324 128.036 19.248C125.912 23.136 122.456 27.69 117.668 32.91C117.56 34.782 117.506 36.708 117.506 38.688C119.234 34.188 121.214 30.93 123.446 28.914C125.678 26.862 127.766 25.836 129.71 25.836C131.51 25.836 132.95 26.448 134.03 27.672C135.146 28.896 135.704 30.408 135.704 32.208C135.704 34.188 135.2 36.006 134.192 37.662C133.184 39.318 131.456 40.794 129.008 42.09C129.152 43.062 129.584 43.854 130.304 44.466C131.06 45.042 131.96 45.33 133.004 45.33C134.12 45.33 135.2 44.898 136.244 44.034C137.288 43.17 138.656 41.73 140.348 39.714C140.78 39.21 141.266 38.958 141.806 38.958ZM124.526 5.586C123.878 5.586 123.158 6.522 122.366 8.394C121.574 10.23 120.8 12.732 120.044 15.9C119.324 19.032 118.73 22.452 118.262 26.16C120.494 23.532 122.33 20.67 123.77 17.574C125.246 14.478 125.984 11.67 125.984 9.15C125.984 7.998 125.858 7.116 125.606 6.504C125.354 5.892 124.994 5.586 124.526 5.586ZM163.049 38.958C163.517 38.958 163.877 39.174 164.129 39.606C164.417 40.038 164.561 40.632 164.561 41.388C164.561 42.828 164.219 43.944 163.535 44.736C162.203 46.356 160.313 47.85 157.865 49.218C155.453 50.586 152.861 51.27 150.089 51.27C146.309 51.27 143.375 50.244 141.287 48.192C139.199 46.14 138.155 43.332 138.155 39.768C138.155 37.284 138.677 34.98 139.721 32.856C140.765 30.696 142.205 28.986 144.041 27.726C145.913 26.466 148.019 25.836 150.359 25.836C152.447 25.836 154.121 26.466 155.381 27.726C156.641 28.95 157.271 30.624 157.271 32.748C157.271 35.232 156.371 37.374 154.571 39.174C152.807 40.938 149.801 42.342 145.553 43.386C146.453 45.042 148.163 45.87 150.683 45.87C152.303 45.87 154.139 45.312 156.191 44.196C158.279 43.044 160.079 41.55 161.591 39.714C162.023 39.21 162.509 38.958 163.049 38.958ZM149.441 31.128C148.109 31.128 146.975 31.902 146.039 33.45C145.139 34.998 144.689 36.87 144.689 39.066V39.174C146.813 38.67 148.487 37.914 149.711 36.906C150.935 35.898 151.547 34.728 151.547 33.396C151.547 32.712 151.349 32.172 150.953 31.776C150.593 31.344 150.089 31.128 149.441 31.128ZM179.064 25.836C179.892 25.836 180.468 25.944 180.792 26.16C181.116 26.376 181.278 26.736 181.278 27.24C181.278 28.104 180.81 31.182 179.874 36.474C179.046 41.55 178.56 44.556 178.416 45.492C177.084 54.744 175.248 62.07 172.908 67.47C170.568 72.87 167.454 75.57 163.566 75.57C161.73 75.57 160.236 74.994 159.084 73.842C157.932 72.726 157.356 71.25 157.356 69.414C157.356 67.722 157.734 65.994 158.49 64.23C159.282 62.466 160.722 60.432 162.81 58.128C164.934 55.86 167.922 53.25 171.774 50.298L171.936 49.056C172.188 47.724 172.476 45.816 172.8 43.332C172.08 45.924 171.072 47.904 169.776 49.272C168.48 50.604 167.112 51.27 165.672 51.27C164.052 51.27 162.72 50.532 161.676 49.056C160.668 47.544 160.164 45.672 160.164 43.44C160.164 40.74 160.344 38.274 160.704 36.042C161.064 33.774 161.658 31.38 162.486 28.86C162.846 27.78 163.35 27.006 163.998 26.538C164.646 26.07 165.672 25.836 167.076 25.836C167.868 25.836 168.408 25.962 168.696 26.214C169.02 26.466 169.182 26.844 169.182 27.348C169.182 27.636 168.984 28.608 168.588 30.264C168.228 31.596 167.94 32.802 167.724 33.882C167.436 35.358 167.184 36.78 166.968 38.148C166.752 39.48 166.644 40.578 166.644 41.442C166.644 42.81 167.022 43.494 167.778 43.494C168.318 43.494 168.984 42.954 169.776 41.874C170.604 40.794 171.468 39.156 172.368 36.96C173.304 34.764 174.204 32.064 175.068 28.86C175.356 27.78 175.788 27.006 176.364 26.538C176.976 26.07 177.876 25.836 179.064 25.836ZM164.16 70.332C165.06 70.332 166.068 69.288 167.184 67.2C168.3 65.112 169.416 61.638 170.532 56.778C167.76 59.118 165.744 61.242 164.484 63.15C163.26 65.094 162.648 66.786 162.648 68.226C162.648 68.838 162.756 69.342 162.972 69.738C163.224 70.134 163.62 70.332 164.16 70.332ZM188.148 51.27C186.564 51.27 185.358 50.838 184.53 49.974C183.738 49.11 183.342 47.976 183.342 46.572C183.342 44.952 183.792 43.656 184.692 42.684C185.628 41.712 186.924 41.226 188.58 41.226C190.164 41.226 191.352 41.622 192.144 42.414C192.972 43.17 193.386 44.304 193.386 45.816C193.386 47.472 192.918 48.804 191.982 49.812C191.046 50.784 189.768 51.27 188.148 51.27ZM204.838 22.272C203.326 22.272 202.192 21.93 201.436 21.246C200.68 20.526 200.302 19.536 200.302 18.276C200.302 17.016 200.788 15.972 201.76 15.144C202.768 14.28 204.01 13.848 205.486 13.848C206.818 13.848 207.898 14.172 208.726 14.82C209.554 15.468 209.968 16.386 209.968 17.574C209.968 19.014 209.5 20.166 208.564 21.03C207.628 21.858 206.386 22.272 204.838 22.272ZM204.406 51.27C202.066 51.27 200.356 50.442 199.276 48.786C198.232 47.13 197.71 44.934 197.71 42.198C197.71 40.578 197.908 38.508 198.304 35.988C198.736 33.432 199.276 31.056 199.924 28.86C200.248 27.708 200.68 26.916 201.22 26.484C201.76 26.052 202.624 25.836 203.812 25.836C205.648 25.836 206.566 26.448 206.566 27.672C206.566 28.572 206.224 30.66 205.54 33.936C204.676 37.896 204.244 40.578 204.244 41.982C204.244 43.062 204.388 43.89 204.676 44.466C204.964 45.042 205.45 45.33 206.134 45.33C206.782 45.33 207.592 44.88 208.564 43.98C209.536 43.08 210.832 41.658 212.452 39.714C212.884 39.21 213.37 38.958 213.91 38.958C214.378 38.958 214.738 39.174 214.99 39.606C215.278 40.038 215.422 40.632 215.422 41.388C215.422 42.828 215.08 43.944 214.396 44.736C210.832 49.092 207.502 51.27 204.406 51.27ZM220.179 51.27C218.055 51.27 216.237 50.748 214.725 49.704C213.249 48.624 212.133 47.22 211.377 45.492C210.621 43.764 210.243 41.91 210.243 39.93C210.243 37.194 210.747 34.764 211.755 32.64C212.799 30.48 214.203 28.806 215.967 27.618C217.731 26.394 219.711 25.782 221.907 25.782C224.031 25.782 225.849 26.322 227.361 27.402C228.873 28.446 230.007 29.832 230.763 31.56C231.519 33.288 231.897 35.142 231.897 37.122C231.897 39.858 231.375 42.306 230.331 44.466C229.287 46.59 227.865 48.264 226.065 49.488C224.301 50.676 222.339 51.27 220.179 51.27ZM220.773 45.438C221.997 45.438 223.023 44.772 223.851 43.44C224.715 42.108 225.147 40.164 225.147 37.608C225.147 35.628 224.787 34.134 224.067 33.126C223.347 32.118 222.483 31.614 221.475 31.614C220.179 31.614 219.099 32.28 218.235 33.612C217.407 34.908 216.993 36.852 216.993 39.444C216.993 41.496 217.353 43.008 218.073 43.98C218.793 44.952 219.693 45.438 220.773 45.438Z" fill="#F8FAFC"/>
</svg>
